<svg xmlns="http://www.w3.org/2000/svg" width="250" height="324"><path d="M110.174 1.04C80.657 4.751 55.85 17.074 35.434 38.166 18.44 55.723 8.077 75.049 2.813 99 .566 109.226.506 110.868.506 162s.06 52.774 2.307 63c5.195 23.638 15.542 43.091 32.123 60.392C52.575 303.796 74.227 315.864 99 321.098c14.814 3.13 37.186 3.13 52 0 23.302-4.923 43.014-15.379 60.392-32.034 13.556-12.992 22.99-27.041 29.925-44.564 3.752-9.48 7.683-26.541 7.683-33.348 0-2.219.45-4.312 1-4.652.643-.397 1-16.697 1-45.618 0-29.745-.339-44.791-1-44.382-.605.374-1-1.021-1-3.534 0-6.897-3.9-23.908-7.673-33.466-6.402-16.219-14.091-28.192-26.263-40.892C192.114 14.662 163.135 1.801 129.32.555c-6.501-.24-15.117-.021-19.146.485m3.102 74.471c-16.921 3.677-32.083 17.066-38.49 33.989-2.269 5.992-2.272 6.086-2.562 73.369l-.291 67.368 4.617-.692c19.409-2.911 32.182-16.325 34.914-36.667l.62-4.622 8.708.496c10.747.611 18.137-.841 26.971-5.3 12.508-6.315 20.973-15.852 26.128-29.437 2.281-6.012 2.504-8.152 2.889-27.715.268-13.619-.005-23.704-.763-28.199-3.482-20.644-20.43-38.325-40.895-42.663-8.093-1.715-13.701-1.696-21.846.073m6.142 39.458c-1.144.463-3.282 2.269-4.75 4.013L112 122.153l.004 19.174c.003 17.221.201 19.497 1.946 22.359 2.413 3.957 5.068 5.426 9.929 5.493 4.913.068 9.703-2.469 11.604-6.146 1.993-3.855 2.187-38.15.238-42.003-2.761-5.457-10.596-8.37-16.303-6.061M.461 162c0 25.025.129 35.263.288 22.75.159-12.512.159-32.987 0-45.5C.59 126.738.461 136.975.461 162" fill="undefined" fill-rule="evenodd"/></svg>